<?xml version="1.0" encoding="utf-8"?>
<!-- Generator: Adobe Illustrator 21.1.0, SVG Export Plug-In . SVG Version: 6.00 Build 0)  -->
<svg version="1.1" id="Layer_1" xmlns="http://www.w3.org/2000/svg" xmlns:xlink="http://www.w3.org/1999/xlink" x="0px" y="0px"
	 viewBox="0 0 128 128" style="enable-background:new 0 0 128 128;" xml:space="preserve">
<path d="M120,0.9H8c-3.8,0-7,3.1-7,7v112c0,3.8,3.1,7,7,7h60.3V78.1H51.9v-19h16.4V45c0-16.3,9.9-25.1,24.4-25.1
	c7,0,12.9,0.5,14.7,0.7v17l-10.1,0c-7.9,0-9.4,3.8-9.4,9.3v12.1h18.8l-2.5,19H88v48.8H120c3.8,0,7-3.1,7-7V7.8
	C127,4,123.9,0.9,120,0.9z"/>
</svg>
