<?xml version="1.0" encoding="utf-8"?>
<!-- Generator: Adobe Illustrator 21.1.0, SVG Export Plug-In . SVG Version: 6.00 Build 0)  -->
<svg version="1.1" id="Layer_1" xmlns="http://www.w3.org/2000/svg" xmlns:xlink="http://www.w3.org/1999/xlink" x="0px" y="0px"
	 viewBox="0 0 128 128" style="enable-background:new 0 0 128 128;" xml:space="preserve">
<style type="text/css">
	.st0{fill:#D23D00;}
	.st1{fill:none;stroke:#FFFFFF;stroke-width:5;stroke-linecap:round;stroke-miterlimit:10;}
</style>
<path class="st0" d="M100.3,128H27.7C12.4,128,0,115.6,0,100.3V27.7C0,12.4,12.4,0,27.7,0h72.6C115.6,0,128,12.4,128,27.7v72.6
	C128,115.6,115.6,128,100.3,128z"/>
<circle class="st1" cx="99.3" cy="69.9" r="23"/>
<circle class="st1" cx="28.7" cy="69.9" r="23"/>
<path class="st1" d="M99.3,69.9L86.5,43V31.7c12.8-1.5,14.2,9,4.8,9.8"/>
<polygon class="st1" points="86.5,43 58.5,74.2 28.7,69.9 50.2,42.9 86.5,38.9 "/>
<line class="st1" x1="58.5" y1="74.2" x2="47" y2="32"/>
<path class="st1" d="M40.8,31.6c3.3,0.8,12.8-0.8,14,0.8"/>
</svg>
