<svg xmlns="http://www.w3.org/2000/svg" width="1em" height="1em" viewBox="0 0 22.4 22.4">
  <path id="external-link-square-alt-solid_2_" d="M22.7,2.4V20a2.433,2.433,0,0,1-2.4,2.4H2.7A2.433,2.433,0,0,1,.3,20V2.4A2.433,2.433,0,0,1,2.7,0H20.3A2.369,2.369,0,0,1,22.7,2.4Zm-4.4.8H12.7a1.155,1.155,0,0,0-1.2,1.2,1.136,1.136,0,0,0,.3.8l1.6,1.6L3.6,16.6a.608.608,0,0,0,0,.8L5.3,19a.608.608,0,0,0,.8,0l9.8-9.8,1.6,1.6a1.151,1.151,0,0,0,1.7,0,1.135,1.135,0,0,0,.3-.8V4.4a1.155,1.155,0,0,0-1.2-1.2Z" transform="translate(-0.3)" fill="currentColor"/>
</svg>
