<?xml version="1.0" encoding="utf-8"?>
<!-- Generator: Adobe Illustrator 21.1.0, SVG Export Plug-In . SVG Version: 6.00 Build 0)  -->
<svg version="1.1" id="Layer_1" xmlns="http://www.w3.org/2000/svg" xmlns:xlink="http://www.w3.org/1999/xlink" x="0px" y="0px"
	 viewBox="0 0 187 221" style="enable-background:new 0 0 187 221;" xml:space="preserve">
<path style="fill:#B3B3B3;" d="M42.81,78.86c0.35-1.23,0.51-2.55,0.42-3.9c-0.44-6.27-5.88-11-12.15-10.56
	c-0.2,0.01-0.39,0.05-0.58,0.07c-3.75-3.2-8.7-4.99-14-4.62C8.92,60.37,2.68,65.16-0.09,71.7l0.34,30.38
	c16.02-0.02,35.88-0.03,38.71-0.22c6.61-0.46,11.59-6.19,11.13-12.8C49.76,84.41,46.82,80.57,42.81,78.86z"/>
<path style="fill:#CCCCCC;" d="M173.02,98.28c0.25-0.89,0.37-1.84,0.3-2.83c-0.32-4.54-4.26-7.97-8.8-7.65
	c-0.14,0.01-0.28,0.03-0.42,0.05c-2.72-2.32-6.3-3.62-10.15-3.35c-5.48,0.38-10,3.85-12.01,8.59c-1.09-0.29-2.23-0.41-3.42-0.33
	c-4.12,0.29-7.51,2.91-8.99,6.49c-1.07-0.4-2.23-0.59-3.44-0.5c-4.54,0.32-7.97,4.26-7.65,8.8s4.26,7.97,8.8,7.65
	c2.48-0.17,39.61-0.02,42.99-0.26c4.79-0.33,8.4-4.49,8.06-9.27C178.06,102.3,175.93,99.52,173.02,98.28z"/>
<path style="fill:#E5E5E5;" d="M57.26,17.11c0.21-0.72,0.3-1.49,0.24-2.29c-0.26-3.68-3.45-6.46-7.13-6.2
	c-0.11,0.01-0.23,0.03-0.34,0.04c-2.2-1.88-5.11-2.93-8.22-2.71c-4.44,0.31-8.11,3.12-9.73,6.96c-0.88-0.23-1.81-0.33-2.77-0.27
	c-3.34,0.23-6.09,2.36-7.29,5.25c-0.87-0.32-1.81-0.47-2.79-0.41c-3.68,0.26-6.46,3.45-6.2,7.13c0.26,3.68,3.45,6.46,7.13,6.2
	c2.01-0.14,32.09-0.02,34.83-0.21c3.88-0.27,6.8-3.63,6.53-7.51C61.35,20.36,59.62,18.11,57.26,17.11z"/>
<path style="fill:#B3B3B3;" d="M183.98,26.73c0.4-1.42,0.59-2.92,0.48-4.47c-0.5-7.19-6.74-12.62-13.93-12.12
	c-0.22,0.02-0.44,0.05-0.66,0.08c-4.3-3.67-9.98-5.73-16.06-5.3c-8.68,0.61-15.84,6.1-19.02,13.6c-1.72-0.45-3.54-0.65-5.41-0.52
	c-6.53,0.46-11.89,4.61-14.24,10.27c-1.69-0.63-3.54-0.93-5.45-0.79c-7.19,0.5-12.62,6.74-12.12,13.93s6.74,12.62,13.93,12.12
	c3.93-0.27,62.72-0.04,68.08-0.41c2.84-0.2,5.42-1.25,7.51-2.88l0.12-21.58C186.22,27.87,185.14,27.22,183.98,26.73z"/>
<path style="fill:#4D4D4D;" d="M169.75,221H17.25c0-35.34,24.06-92.55,76.25-92.55S169.75,185.66,169.75,221z"/>
<circle style="fill:#4D4D4D;" cx="93.5" cy="84.01" r="39.63"/>
</svg>
