<?xml version="1.0" encoding="utf-8"?>
<!-- Generator: Adobe Illustrator 21.1.0, SVG Export Plug-In . SVG Version: 6.00 Build 0)  -->
<svg version="1.1" id="Layer_1" xmlns="http://www.w3.org/2000/svg" xmlns:xlink="http://www.w3.org/1999/xlink" x="0px" y="0px"
	 viewBox="0 0 128 128" style="enable-background:new 0 0 128 128;" xml:space="preserve">
<path d="M122.1,34.7c-1.4-5.2-5.5-9.3-10.8-10.8c-9.4-2.6-47.4-2.6-47.4-2.6s-38,0.1-47.4,2.7c-5.2,1.4-9.3,5.5-10.8,10.8
	c-2.9,16.8-4,42.3,0.1,58.4c1.4,5.2,5.5,9.3,10.8,10.8c9.4,2.6,47.4,2.6,47.4,2.6s38,0,47.4-2.6c5.2-1.4,9.3-5.5,10.8-10.8
	C125.2,76.5,126.2,50.9,122.1,34.7z M51.8,82.3V45.7L83.4,64L51.8,82.3z"/>
</svg>
